<?xml version="1.0" standalone="no"?><!-- Generator: Gravit.io --><svg xmlns="http://www.w3.org/2000/svg" xmlns:xlink="http://www.w3.org/1999/xlink" style="isolation:isolate" viewBox="869 500.125 49 49" width="49" height="49"><path d=" M 801 500.125 C 787.25 500.125 776 511.738 776 525.931 C 776 536.899 782.665 546.252 791.938 550.015 C 792.875 549.801 793.708 548.94 793.708 547.865 L 793.708 543.136 L 790.998 543.136 C 789.021 543.136 787.352 542.17 786.523 540.663 C 786.31 540.233 786.103 539.695 785.896 539.157 C 785.481 537.974 784.96 536.684 783.919 535.931 C 783.499 535.609 783.292 534.962 783.398 534.424 C 783.605 533.886 784.126 533.458 785.061 533.568 C 786.103 533.672 787.666 534.857 788.606 536.147 C 789.435 537.222 790.063 537.869 791.311 537.869 L 791.625 537.869 C 792.56 537.869 794.856 537.869 795.271 537.436 C 795.583 537.008 795.792 536.684 796.104 536.36 C 789.854 535.071 786.31 531.308 786.31 525.608 C 786.31 523.672 786.831 521.74 787.979 520.017 C 787.565 518.405 786.625 514.213 788.606 512.381 L 788.915 512.063 L 789.334 512.063 C 792.04 512.063 794.022 513.242 795.271 514.213 C 798.917 512.814 803.083 512.814 806.729 514.213 C 807.877 513.242 809.854 512.063 812.667 512.063 L 813.085 512.063 L 813.394 512.381 C 815.376 514.317 814.435 518.405 814.021 520.017 C 815.063 521.74 815.69 523.671 815.69 525.609 C 815.69 531.308 812.145 535.071 806.001 536.362 C 807.564 538.082 808.397 540.663 808.397 542.708 L 808.397 547.974 C 808.397 549.05 809.126 549.91 810.168 550.125 C 819.333 546.252 826 536.899 826 525.931 C 826 511.738 814.75 500.125 801 500.125 Z " fill="rgb(0,0,0)"/><path d=" M 909 500.5 L 879 500.5 C 873.484 500.5 869 504.984 869 510.5 L 869 540.5 C 869 546.016 873.484 550.5 879 550.5 L 909 550.5 C 914.516 550.5 919 546.016 919 540.5 L 919 510.5 C 919 504.984 914.516 500.5 909 500.5 Z  M 885 535.398 L 885 542.5 L 877 542.5 L 877 519.5 L 885 519.5 L 885 535.398 Z  M 881 517 C 878.602 517 877 515.3 877 513.2 C 877 511.101 878.602 509.5 881 509.5 C 883.398 509.5 884.898 511.102 885 513.2 C 885 515.3 883.5 517 881 517 Z  M 911 542.5 L 903 542.5 L 903 529.5 C 903 528.602 902.898 525.5 899.5 525.5 C 896.5 525.5 896 528.398 896 529.5 L 896 542.5 L 888 542.5 L 888 519.5 L 896 519.5 L 896 522.602 C 896 522.602 897.602 519.5 902.3 519.5 C 907.102 519.5 911 522.8 911 529.5 L 911 542.5 Z " fill="rgb(0,0,0)"/><path d=" M 1000 500.5 L 970 500.5 C 964.484 500.5 960 504.984 960 510.5 L 960 540.5 C 960 546.016 964.484 550.5 970 550.5 L 1000 550.5 C 1005.516 550.5 1010 546.016 1010 540.5 L 1010 510.5 C 1010 504.984 1005.516 500.5 1000 500.5 Z  M 994 540.738 C 994 540.862 993.947 540.98 993.855 541.063 C 993.738 541.164 991.012 543.5 984.742 543.5 C 977.23 543.5 977 535.117 977 534.164 L 977 523.512 L 973.43 523.5 C 973.317 523.502 973.207 523.459 973.126 523.379 C 973.046 523.3 973 523.191 973 523.078 L 973 519.308 C 973.002 519.131 973.11 518.973 973.273 518.906 C 973.343 518.883 980.059 516.273 980.059 509.93 C 980.059 509.691 980.254 509.5 980.492 509.5 L 984.578 509.5 C 984.816 509.5 985.008 509.691 985.008 509.93 L 985 517.5 L 991.563 517.5 C 991.801 517.5 991.993 517.707 991.993 517.945 L 991.993 523.055 C 991.993 523.295 991.803 523.492 991.563 523.5 L 985 523.5 L 985 534.004 C 985 534.25 985.227 537.266 988.434 537.266 C 991.09 537.266 993.32 535.898 993.344 535.883 C 993.474 535.798 993.642 535.793 993.777 535.871 C 993.914 535.946 994 536.09 994 536.246 L 994 540.738 Z " fill="rgb(0,0,0)"/></svg>